<svg width="512" height="512" viewBox="0 0 512 512" fill="none" xmlns="http://www.w3.org/2000/svg">
  <defs>
    <linearGradient id="bg" x1="0" y1="0" x2="512" y2="512" gradientUnits="userSpaceOnUse">
      <stop offset="0%" stop-color="#1e1b4b"/>
      <stop offset="100%" stop-color="#0f0a2e"/>
    </linearGradient>
    <linearGradient id="shield" x1="120" y1="100" x2="392" y2="420" gradientUnits="userSpaceOnUse">
      <stop offset="0%" stop-color="#a5b4fc"/>
      <stop offset="100%" stop-color="#6366f1"/>
    </linearGradient>
    <linearGradient id="check" x1="185" y1="245" x2="340" y2="290" gradientUnits="userSpaceOnUse">
      <stop offset="0%" stop-color="#c7d2fe"/>
      <stop offset="100%" stop-color="#a5b4fc"/>
    </linearGradient>
  </defs>
  <!-- Background circle -->
  <circle cx="256" cy="256" r="256" fill="url(#bg)"/>
  <!-- Shield glow - centered and wider -->
  <path d="M256 96L108 168v112c0 96 62 174 148 204 86-30 148-108 148-204V168L256 96z" fill="url(#shield)" opacity="0.12"/>
  <!-- Shield outline - centered and wider -->
  <path d="M256 96L108 168v112c0 96 62 174 148 204 86-30 148-108 148-204V168L256 96z" stroke="url(#shield)" stroke-width="14" fill="none" stroke-linejoin="round"/>
  <!-- Checkmark - centered -->
  <path d="M185 260l50 50 92-92" stroke="url(#check)" stroke-width="28" stroke-linecap="round" stroke-linejoin="round" fill="none"/>
</svg>
